<svg width="32" height="32" viewBox="0 0 32 32" fill="none" xmlns="http://www.w3.org/2000/svg">
<path fill-rule="evenodd" clip-rule="evenodd" d="M13.1211 26.6721C13.1987 27.047 13.2375 27.2344 13.1202 27.3661C13.0029 27.4978 12.8073 27.4804 12.4162 27.4455C10.2265 27.2506 9.0019 26.8491 8.04409 26.4524C6.45082 25.7925 5.18498 24.5266 4.52502 22.9333C4.12826 21.9755 3.72676 20.7508 3.53175 18.561C3.49692 18.1699 3.4795 17.9744 3.61117 17.8571C3.74283 17.7398 3.9303 17.7786 4.30522 17.8562C8.72524 18.771 12.2063 22.252 13.1211 26.6721ZM17.3535 27.5262C17.0493 27.5404 16.8972 27.5475 16.7927 27.4609C16.6882 27.3743 16.6659 27.2162 16.6211 26.9C15.7032 20.4091 10.5682 15.274 4.07731 14.3561C3.76105 14.3114 3.60293 14.289 3.51635 14.1845C3.42978 14.08 3.43688 13.9279 3.45107 13.6238C3.5105 12.3498 3.63098 11.3488 3.78583 10.5325C3.83678 10.2639 3.86225 10.1296 3.96846 10.0482C4.07466 9.96677 4.21224 9.97711 4.48738 9.9978C13.2904 10.6596 20.3177 17.6869 20.9795 26.49C21.0001 26.7651 21.0105 26.9027 20.929 27.0089C20.8476 27.1151 20.7133 27.1406 20.4447 27.1915C19.6284 27.3463 18.6274 27.4668 17.3535 27.5262ZM25.2447 24.8319C24.8985 25.2108 24.7253 25.4002 24.5145 25.3372C24.3037 25.2742 24.2586 24.994 24.1683 24.4337C22.7123 15.3993 15.5782 8.2651 6.54384 6.80903C5.98352 6.71872 5.70336 6.67357 5.64038 6.46277C5.57739 6.25196 5.76681 6.07883 6.14566 5.73257C6.69829 5.22746 7.33914 4.81685 8.04409 4.52485C9.37843 3.97214 11.2306 3.41034 15.4886 3.41034C19.7467 3.41034 21.5992 3.97216 22.9335 4.52485C24.5268 5.1848 25.7926 6.45065 26.4526 8.04391C27.0052 9.37812 27.5669 11.2304 27.5669 15.4886C27.5669 19.7469 27.0052 21.5991 26.4526 22.9333C26.1606 23.6384 25.7499 24.2793 25.2447 24.8319ZM0 15.4886C0 10.8699 0.61972 8.5605 1.37428 6.73883C2.38036 4.30994 4.31011 2.38019 6.73901 1.37411C8.56068 0.619545 10.8699 0 15.4886 0C20.1074 0 22.4169 0.619545 24.2386 1.37411C26.6675 2.38019 28.5972 4.30994 29.6033 6.73883C30.3579 8.5605 30.9772 10.8699 30.9772 15.4886C30.9772 20.1074 30.3579 22.4168 29.6033 24.2384C28.5972 26.6673 26.6675 28.5971 24.2386 29.6032C22.4169 30.3577 20.1074 30.9773 15.4886 30.9773C10.8699 30.9773 8.56068 30.3577 6.73901 29.6032C4.31011 28.5971 2.38036 26.6673 1.37428 24.2384C0.61972 22.4168 0 20.1074 0 15.4886Z" fill="white"></path>
</svg>
